<svg id="Calque_1" data-name="Calque 1" xmlns="http://www.w3.org/2000/svg" viewBox="0 0 54.275 8.688"><defs><style>.cls-1{fill:#fff;}.cls-2{fill:#4880c2;}</style></defs><path class="cls-1" d="M6.012,4.3a4.036,4.036,0,0,0-.954-.42Q4.536,3.72,4.014,3.6T3.06,3.36a2.085,2.085,0,0,1-.7-.318A.622.622,0,0,1,2.1,2.52a.793.793,0,0,1,.156-.486,1.09,1.09,0,0,1,.516-.342A2.725,2.725,0,0,1,3.7,1.56a4.326,4.326,0,0,1,1.152.162,5.106,5.106,0,0,1,1.176.5l.6-1.476A4.5,4.5,0,0,0,5.268.186,6.6,6.6,0,0,0,3.708,0,4.815,4.815,0,0,0,1.734.354,2.668,2.668,0,0,0,.558,1.3a2.344,2.344,0,0,0-.39,1.314,2.052,2.052,0,0,0,.27,1.1,2.123,2.123,0,0,0,.7.7,4.416,4.416,0,0,0,.954.432q.522.168,1.044.282t.954.24a2.189,2.189,0,0,1,.7.323.636.636,0,0,1,.264.535.713.713,0,0,1-.168.467,1.082,1.082,0,0,1-.522.319,3.112,3.112,0,0,1-.93.114,4.7,4.7,0,0,1-1.494-.246A4.822,4.822,0,0,1,.66,6.252L0,7.716a4.54,4.54,0,0,0,1.488.7,6.853,6.853,0,0,0,1.932.27,4.794,4.794,0,0,0,1.986-.36A2.774,2.774,0,0,0,6.588,7.38a2.271,2.271,0,0,0,.4-1.3,2.025,2.025,0,0,0-.27-1.092A2.123,2.123,0,0,0,6.012,4.3Z"/><rect class="cls-1" x="8.316" y="0.144" width="1.944" height="8.4"/><path class="cls-1" d="M18.48.666A5.325,5.325,0,0,0,16.068.144H12.252v8.4h3.816a5.312,5.312,0,0,0,2.412-.523,3.962,3.962,0,0,0,1.632-1.463A4.1,4.1,0,0,0,20.7,4.344a4.087,4.087,0,0,0-.588-2.22A3.985,3.985,0,0,0,18.48.666Zm-.09,5.058a2.306,2.306,0,0,1-.96.906,3.147,3.147,0,0,1-1.458.317H14.2V1.74h1.776a3.147,3.147,0,0,1,1.458.318,2.318,2.318,0,0,1,.96.9,2.688,2.688,0,0,1,.342,1.386A2.7,2.7,0,0,1,18.39,5.724Z"/><rect class="cls-1" x="22.164" y="0.144" width="1.944" height="8.4"/><path class="cls-1" d="M32.328.666A5.325,5.325,0,0,0,29.916.144H26.1v8.4h3.817a5.312,5.312,0,0,0,2.412-.523A3.968,3.968,0,0,0,33.96,6.558a4.106,4.106,0,0,0,.588-2.214,4.1,4.1,0,0,0-.588-2.22A3.991,3.991,0,0,0,32.328.666Zm-.09,5.058a2.315,2.315,0,0,1-.961.906,3.149,3.149,0,0,1-1.457.317H28.044V1.74H29.82a3.149,3.149,0,0,1,1.457.318,2.326,2.326,0,0,1,.961.9,2.688,2.688,0,0,1,.342,1.386A2.7,2.7,0,0,1,32.238,5.724Z"/><polygon class="cls-1" points="52.342 0.144 49.749 6.143 47.195 0.144 45.094 0.144 48.718 8.544 50.638 8.544 54.275 0.144 52.342 0.144"/><rect class="cls-1" x="35.734" y="0.123" width="8" height="2" rx="1"/><rect class="cls-2" x="37.189" y="3.123" width="6.545" height="2" rx="1"/><rect class="cls-1" x="35.734" y="6.123" width="8" height="2" rx="1"/></svg>